<svg xmlns="http://www.w3.org/2000/svg" preserveAspectRatio="xMidYMid meet" class="dicon autocompleteIcon styles__icon___2E1di styles__lightIcon___38PYC styles__small___3FOEa " viewBox="0 0 24 24"><path d="M15.864 14.32h-.813l-.285-.277c1.008-1.174 1.615-2.696 1.615-4.354C16.38 5.993 13.384 3 9.69 3 5.994 3 3 5.995 3 9.69c0 3.694 2.995 6.688 6.69 6.688 1.656 0 3.18-.607 4.353-1.615l.277.287v.813L19.467 21 21 19.467l-5.136-5.147zm-6.175 0c-2.564 0-4.633-2.068-4.633-4.63s2.07-4.632 4.63-4.632 4.632 2.068 4.632 4.63-2.07 4.632-4.63 4.632z"/></svg>