<svg xmlns="http://www.w3.org/2000/svg" preserveAspectRatio="xMidYMid meet" class="dicon styles__eye___3havL  " viewBox="0 0 20 20" style="width: 18px; height: 18px;"><path fill-rule="evenodd" clip-rule="evenodd" d="M2 9C2 9 4 5 9 5C14 5 16 9 16 9C16 9 14 13 9 13C4 13 2 9 2 9ZM3 9C3 9 4.71429 6 9 6C13.2857 6 15 9 15 9C15 9 13.2857 12 9 12C4.71429 12 3 9 3 9ZM9 12C7.34315 12 6 10.6569 6 9C6 7.34315 7.34315 6 9 6C10.6569 6 12 7.34315 12 9C12 10.6569 10.6569 12 9 12ZM9 11C10.1046 11 11 10.1046 11 9C11 7.89543 10.1046 7 9 7C7.89543 7 7 7.89543 7 9C7 10.1046 7.89543 11 9 11Z" fill="#007BFF"/></svg>