<svg xmlns="http://www.w3.org/2000/svg" preserveAspectRatio="xMidYMid meet" class="dicon styles__icon___32Su8  " viewBox="0 0 22 22" style="width: 22px; height: 22px;"><path d="M0.0078125 0V3.62618C8.47447 3.63176 15.3559 10.5255 15.3638 19H19C18.9978 13.7629 16.8685 9.0174 13.4278 5.57444C9.98706 2.13258 5.24376 0.00223424 0.0078125 0V0ZM0.00244141 6.46143V10.0887C2.36962 10.0898 4.61168 11.0204 6.28625 12.6994C7.96417 14.374 8.88914 16.6172 8.89361 18.9933V19H12.5388C12.5354 15.5436 11.1301 12.4134 8.85898 10.1412C6.58787 7.869 3.4577 6.46254 0.00244141 6.46143V6.46143ZM0.739398 18.2403V18.2392C0.738281 18.2392 0.738281 18.2392 0.738281 18.2392L0.739398 18.2403V18.2403ZM4.30539 14.6868C4.76676 15.1471 5.04715 15.7704 5.04827 16.4653C5.04715 17.1579 4.76676 17.7823 4.30762 18.2392L4.30539 18.2404C3.84737 18.6973 3.21954 18.9777 2.52246 18.9777C1.82426 18.9777 1.19867 18.6961 0.739534 18.2392C0.282632 17.7823 0 17.159 0 16.4653C0 15.7704 0.282632 15.1459 0.739534 14.6868C1.19867 14.2299 1.82426 13.9473 2.52246 13.9473C3.21954 13.9473 3.84737 14.2299 4.30539 14.6868V14.6868Z"/></svg>