<?xml version="1.0" encoding="UTF-8"?>
<svg width="96px" height="164px" viewBox="0 0 96 164" version="1.1" xmlns="http://www.w3.org/2000/svg" xmlns:xlink="http://www.w3.org/1999/xlink">
    <!-- Generator: Sketch 52.2 (67145) - http://www.bohemiancoding.com/sketch -->
    <title>PrivateRepo@3x</title>
    <desc>Created with Sketch.</desc>
    <defs>
        <filter x="-0.0%" y="-0.0%" width="100.0%" height="100.0%" filterUnits="objectBoundingBox" id="filter-1">
            <feGaussianBlur stdDeviation="0" in="SourceGraphic"></feGaussianBlur>
        </filter>
        <filter x="0.0%" y="-0.0%" width="100.0%" height="100.0%" filterUnits="objectBoundingBox" id="filter-2">
            <feGaussianBlur stdDeviation="0" in="SourceGraphic"></feGaussianBlur>
        </filter>
        <polygon id="path-3" points="0.1552 0.826 20.9062 0.826 20.9062 24.452 0.1552 24.452"></polygon>
    </defs>
    <g id="HomePage" stroke="none" stroke-width="1" fill="none" fill-rule="evenodd">
        <g id="DistroLandingV10" transform="translate(-293.000000, -2428.000000)">
            <g id="PrivateRepo" transform="translate(293.000000, 2428.000000)">
                <path d="M70.4572335,121.700626 L5.0648721,87.0928508 C4.08859464,86.5761728 3.71601562,85.3658933 4.23269357,84.3896159 C4.47775778,83.9265602 4.89473431,83.5781524 5.39397602,83.4192979 L9.55857733,82.0941567 C10.0702651,81.9313419 10.6259301,81.9811225 11.1005298,82.2322961 L76.4928912,116.840072 C77.4691686,117.356749 77.8417477,118.567029 77.3250697,119.543306 C77.0800055,120.006362 76.663029,120.35477 76.1637873,120.513624 L71.9991859,121.838766 C71.4874982,122.00158 70.9318332,121.9518 70.4572335,121.700626 Z" id="Rectangle-Copy-19" fill="#E7EAEA" opacity="0.40625" filter="url(#filter-1)"></path>
                <path d="M87.4866126,163.399808 L59.0995208,149.077284 C58.1133625,148.579724 57.7172752,147.376933 58.214835,146.390775 C58.456914,145.910977 58.8818988,145.54879 59.3940082,145.385841 L63.4534638,144.094156 C63.9522847,143.935435 64.4934517,143.978607 64.9607997,144.214405 L93.3478915,158.536928 C94.3340498,159.034488 94.7301371,160.237279 94.2325773,161.223437 C93.9904983,161.703235 93.5655136,162.065423 93.0534041,162.228372 L88.9939485,163.520057 C88.4951276,163.678777 87.9539606,163.635605 87.4866126,163.399808 Z" id="Rectangle-Copy-20" fill="#E7EAEA" opacity="0.40625" filter="url(#filter-2)"></path>
                <polygon id="Rectangle-2-Copy-26" fill="#B0B8BF" points="79.0198669 46.9689636 81.0122375 45.9954529 1.87813384 0 0 1.02649323"></polygon>
                <polygon id="Rectangle-2-Copy-27" fill="#EBEDEF" points="-1.73466539e-12 1 79 46.9471783 79 105 -1.73466539e-12 58.6409121"></polygon>
                <path d="M6.14285714,11.1830225 L30.8571429,25.5570145 C31.4883254,25.9241144 32,26.7217687 32,27.3386251 L32,32.3647534 C32,32.9816098 31.4883254,33.1840774 30.8571429,32.8169775 L6.14285714,18.4429855 C5.51167457,18.0758856 5,17.2782313 5,16.6613749 L5,11.6352466 C5,11.0183902 5.51167457,10.8159226 6.14285714,11.1830225 Z" id="Rectangle-2-Copy-28" fill="#1793EF"></path>
                <path d="M62.4444444,46.068134 L75.5555556,53.3677912 C75.8010154,53.5044519 76,53.8013954 76,54.0310331 L76,55.7635161 C76,55.9931539 75.8010154,56.0685267 75.5555556,55.931866 L62.4444444,48.6322088 C62.1989846,48.4955481 62,48.1986046 62,47.9689669 L62,46.2364839 C62,46.0068461 62.1989846,45.9314733 62.4444444,46.068134 Z" id="Rectangle-2-Copy-29" fill="#2552A2"></path>
                <path d="M6.57142857,31.0920403 L59.4285714,62.0118388 C59.7441627,62.19645 60,62.5975829 60,62.9077943 L60,63.6805403 C60,63.9907517 59.7441627,64.0925708 59.4285714,63.9079597 L6.57142857,32.9881612 C6.25583729,32.80355 6,32.4024171 6,32.0922057 L6,31.3194597 C6,31.0092483 6.25583729,30.9074292 6.57142857,31.0920403 Z" id="Rectangle-2-Copy-30" fill="#354D69"></path>
                <path d="M6.57142857,37.0920403 L59.4285714,68.0118388 C59.7441627,68.19645 60,68.5975829 60,68.9077943 L60,69.6805403 C60,69.9907517 59.7441627,70.0925708 59.4285714,69.9079597 L6.57142857,38.9881612 C6.25583729,38.80355 6,38.4024171 6,38.0922057 L6,37.3194597 C6,37.0092483 6.25583729,36.9074292 6.57142857,37.0920403 Z" id="Rectangle-2-Copy-31" fill="#354D69"></path>
                <path d="M6.57142857,53.0920403 L59.4285714,84.0118388 C59.7441627,84.19645 60,84.5975829 60,84.9077943 L60,85.6805403 C60,85.9907517 59.7441627,86.0925708 59.4285714,85.9079597 L6.57142857,54.9881612 C6.25583729,54.80355 6,54.4024171 6,54.0922057 L6,53.3194597 C6,53.0092483 6.25583729,52.9074292 6.57142857,53.0920403 Z" id="Rectangle-2-Copy-32" fill="#354D69" opacity="0.200000003"></path>
                <polygon id="Rectangle-2-Copy-35" fill="#B0B8BF" points="81 46 79 46.9650265 79 105 81 103.440929"></polygon>
                <g id="Group-5" transform="translate(58.000000, 90.538462)">
                    <g id="Group-16" transform="translate(0.000000, 0.461538)">
                        <path d="M34.3146,24.6871 L10.6036,10.9971 C9.6836,10.4661 8.8436,10.4311 8.1986,10.8031 L1.2706,14.8031 L4.3306,19.5371 L4.3306,32.5211 C4.3306,35.2281 5.9756,38.3721 8.0056,39.5431 L25.8666,49.8561 L29.7916,55.9271 L36.7196,51.9271 C37.4976,51.4781 37.9896,50.4351 37.9896,48.9551 L37.9896,31.7091 C37.9896,29.0031 36.3446,25.8591 34.3146,24.6871" id="Fill-1" fill="#B0B8BF"></path>
                        <path d="M3.6752,42.0435 L27.3862,55.7335 C28.3062,56.2645 29.1462,56.2985 29.7912,55.9265 C30.5692,55.4775 31.0612,54.4355 31.0612,52.9545 L31.0612,35.7095 C31.0612,33.0025 29.4162,29.8585 27.3862,28.6865 L3.6752,14.9975 C2.7552,14.4665 1.9152,14.4315 1.2702,14.8035 C0.4922,15.2525 0.0002,16.2955 0.0002,17.7755 L0.0002,35.0215 C0.0002,37.7275 1.6452,40.8715 3.6752,42.0435" id="Fill-3" fill="#EBEDEF"></path>
                        <g id="Group-7" transform="translate(9.000000, 0.174100)">
                            <mask id="mask-4" fill="white">
                                <use xlink:href="#path-3"></use>
                            </mask>
                            <g id="Clip-6"></g>
                            <path d="M20.9062,24.452 L15.2892,24.452 L15.2892,17.721 C15.2892,13.959 12.4092,8.996 9.1262,7.1 C7.8422,6.359 6.9642,6.338 6.5672,6.564 C6.1832,6.786 5.7722,7.538 5.7722,8.982 L5.7722,15.714 L0.1552,15.714 L0.1552,8.982 C0.1552,5.677 1.4692,3.022 3.7592,1.7 C6.0612,0.37 9.0422,0.565 11.9342,2.235 C16.9662,5.14 20.9062,11.942 20.9062,17.721 L20.9062,24.452 Z" id="Fill-5" fill="#37506C" mask="url(#mask-4)"></path>
                        </g>
                        <path d="M21.9937,39.6464 C21.9937,35.5504 19.0997,30.5594 15.5307,28.4984 C11.9617,26.4384 9.0677,28.0874 9.0677,32.1834 C9.0677,36.2794 11.9617,41.2704 15.5307,43.3314 C19.0997,45.3924 21.9937,43.7424 21.9937,39.6464" id="Fill-8" fill="#7DC2FF"></path>
                        <polygon id="Fill-10" fill="#003D87" points="14.1187 39.4778 16.9427 41.1088 16.9427 32.6018 14.1187 30.9708"></polygon>
                        <path d="M25.1054,23.4821 C24.0124,24.1131 24.0174,25.1401 25.1174,25.7751 C26.2184,26.4101 27.9964,26.4141 29.0894,25.7821 C30.1834,25.1511 30.1774,24.1241 29.0774,23.4891 C27.9774,22.8541 26.1984,22.8511 25.1054,23.4821" id="Fill-12" fill="#37506C"></path>
                        <path d="M9.9716,14.8154 C8.8786,15.4464 8.8836,16.4734 9.9836,17.1084 C11.0846,17.7434 12.8626,17.7474 13.9556,17.1154 C15.0496,16.4844 15.0436,15.4574 13.9436,14.8224 C12.8436,14.1874 11.0646,14.1844 9.9716,14.8154" id="Fill-14" fill="#37506C"></path>
                    </g>
                </g>
            </g>
        </g>
    </g>
</svg>